<svg width="575" height="193" viewBox="0 0 575 193" fill="none" xmlns="http://www.w3.org/2000/svg">
<path d="M30.0115 192.967C28.143 192.967 26.586 192.306 25.3404 190.982L1.98519 167.627C0.661731 166.381 0 164.824 0 162.956V40.2244C0 38.2781 0.973134 37.305 2.9194 37.305H35.967C37.9133 37.305 38.8864 38.2781 38.8864 40.2244V161.672H65.0443V40.2244C65.0443 38.2781 66.0174 37.305 67.9637 37.305H101.011C102.958 37.305 103.931 38.2781 103.931 40.2244V162.956C103.931 164.824 103.269 166.381 101.946 167.627L78.5903 190.982C77.3447 192.306 75.7877 192.967 73.9193 192.967H30.0115Z" fill="#0F0F0F"/>
<path d="M118.628 192.967C116.682 192.967 115.709 191.994 115.709 190.048V40.2244C115.709 38.2781 116.682 37.305 118.628 37.305H200.021C201.967 37.305 202.94 38.2781 202.94 40.2244V65.448C202.94 67.3943 201.967 68.3674 200.021 68.3674H154.595V101.532H196.051C197.997 101.532 198.97 102.505 198.97 104.451V125.821C198.97 127.768 197.997 128.741 196.051 128.741H154.595V161.788H200.021C201.967 161.788 202.94 162.761 202.94 164.708V190.048C202.94 191.994 201.967 192.967 200.021 192.967H118.628ZM148.99 31.5829C147.511 32.2836 146.46 31.9333 145.837 30.5319L141.75 21.7737C141.205 20.3724 141.633 19.2047 143.034 18.2705L170.593 0.403713C171.995 -0.452648 173.046 0.0533828 173.746 1.9218L180.403 15.8182C181.025 17.1416 180.597 18.1926 179.118 18.9711L148.99 31.5829Z" fill="#0F0F0F"/>
<path d="M217.459 192.967C215.513 192.967 214.54 191.994 214.54 190.048V40.2244C214.54 38.2781 215.513 37.305 217.459 37.305H250.507C252.453 37.305 253.426 38.2781 253.426 40.2244V161.788H282.854C284.8 161.788 285.773 162.761 285.773 164.708V190.048C285.773 191.994 284.8 192.967 282.854 192.967H217.459Z" fill="#0F0F0F"/>
<path d="M318.065 192.967C316.275 192.967 314.718 192.306 313.394 190.982L290.039 167.627C288.715 166.381 288.054 164.824 288.054 162.956V67.1996C288.054 65.4091 288.715 63.8521 290.039 62.5286L313.394 39.1734C314.718 37.9278 316.275 37.305 318.065 37.305H363.958C365.827 37.305 367.384 37.9278 368.629 39.1734L391.984 62.5286C393.308 63.8521 393.97 65.4091 393.97 67.1996V162.956C393.97 164.824 393.308 166.381 391.984 167.627L368.629 190.982C367.384 192.306 365.827 192.967 363.958 192.967H318.065ZM331.845 161.788H350.179C353.448 161.788 355.083 159.608 355.083 155.249V75.0236C355.083 70.5861 353.448 68.3674 350.179 68.3674H331.845C328.653 68.3674 327.057 70.5861 327.057 75.0236V155.249C327.057 159.608 328.653 161.788 331.845 161.788Z" fill="#0F0F0F"/>
<path d="M449.728 192.967C447.938 192.967 446.381 192.461 445.057 191.449L426.023 174.05L406.755 148.943C405.898 147.853 405.354 147.191 405.12 146.958C404.886 146.646 404.77 145.946 404.77 144.856V85.2999C404.77 84.21 404.886 83.5094 405.12 83.198C405.431 82.8866 405.976 82.2248 406.755 81.2128L424.622 58.0911L445.057 38.823C445.914 38.1224 446.575 37.6942 447.043 37.5385C447.588 37.3828 448.483 37.305 449.728 37.305H478.572C480.518 37.305 481.492 38.2781 481.492 40.2244V58.9085C481.492 59.5313 481.414 60.1931 481.258 60.8937C481.18 61.5165 480.791 62.0615 480.09 62.5286L458.136 77.5927L443.773 96.0433V134.229L458.37 152.68L480.09 167.627C480.713 168.016 481.102 168.483 481.258 169.028C481.414 169.573 481.492 170.157 481.492 170.78V190.048C481.492 191.994 480.518 192.967 478.572 192.967H449.728Z" fill="#0F0F0F"/>
<path d="M490.688 192.967C488.741 192.967 487.768 191.994 487.768 190.048V40.2244C487.768 38.2781 488.741 37.305 490.688 37.305H572.081C574.027 37.305 575 38.2781 575 40.2244V65.448C575 67.3943 574.027 68.3674 572.081 68.3674H526.655V101.532H568.11C570.056 101.532 571.03 102.505 571.03 104.451V125.821C571.03 127.768 570.056 128.741 568.11 128.741H526.655V161.788H572.081C574.027 161.788 575 162.761 575 164.708V190.048C575 191.994 574.027 192.967 572.081 192.967H490.688Z" fill="#0F0F0F"/>
</svg>
