<svg width="177" height="44" viewBox="0 0 177 44" fill="none" xmlns="http://www.w3.org/2000/svg">
<path d="M29.365 32V12.475H42.0425V15.1975H30.7675L32.335 13.575V22.54L30.7675 21.1375H41.5475V23.7775H30.7675L32.335 22.375V32H29.365ZM52.2925 32.44C50.4041 32.44 48.7816 32.0367 47.425 31.23C46.0683 30.405 45.0233 29.2317 44.29 27.71C43.5566 26.1883 43.19 24.3733 43.19 22.265C43.19 20.1567 43.5566 18.3417 44.29 16.82C45.0233 15.28 46.0683 14.0975 47.425 13.2725C48.7816 12.4475 50.4041 12.035 52.2925 12.035C54.1991 12.035 55.8308 12.4475 57.1875 13.2725C58.5625 14.0975 59.6075 15.28 60.3225 16.82C61.0558 18.3417 61.4225 20.1567 61.4225 22.265C61.4225 24.3733 61.0558 26.1883 60.3225 27.71C59.6075 29.2317 58.5625 30.405 57.1875 31.23C55.8308 32.0367 54.1991 32.44 52.2925 32.44ZM52.2925 29.7175C53.5575 29.7175 54.6391 29.4242 55.5375 28.8375C56.4541 28.2508 57.1508 27.4075 57.6275 26.3075C58.1041 25.1892 58.3425 23.8417 58.3425 22.265C58.3425 20.6883 58.1041 19.3408 57.6275 18.2225C57.1508 17.1042 56.4541 16.2517 55.5375 15.665C54.6391 15.06 53.5575 14.7575 52.2925 14.7575C51.0458 14.7575 49.9733 15.06 49.075 15.665C48.1766 16.2517 47.48 17.1042 46.985 18.2225C46.5083 19.3408 46.27 20.6883 46.27 22.265C46.27 23.8417 46.5083 25.1892 46.985 26.3075C47.48 27.4075 48.1766 28.2508 49.075 28.8375C49.9733 29.4242 51.0458 29.7175 52.2925 29.7175ZM70.7993 32.44C69.2593 32.44 67.9118 32.1467 66.7568 31.56C65.6202 30.955 64.7402 30.1025 64.1168 29.0025C63.5118 27.9025 63.2093 26.6008 63.2093 25.0975V12.4475H66.1793V25.0975C66.1793 26.5825 66.5827 27.7283 67.3893 28.535C68.196 29.3233 69.3327 29.7175 70.7993 29.7175C72.266 29.7175 73.4027 29.3233 74.2093 28.535C75.016 27.7283 75.4193 26.5825 75.4193 25.0975V12.4475H78.3893V25.0975C78.3893 26.6008 78.0777 27.9025 77.4543 29.0025C76.8493 30.1025 75.9785 30.955 74.8418 31.56C73.7052 32.1467 72.3577 32.44 70.7993 32.44ZM81.7439 32V12.475H85.5114L94.5314 28.3975V12.475H97.5014V32H93.5964L84.7139 16.435V32H81.7439ZM100.376 32V12.475H106.646C109.708 12.475 112.064 13.3275 113.714 15.0325C115.364 16.7192 116.189 19.13 116.189 22.265C116.189 25.3817 115.373 27.7833 113.741 29.47C112.128 31.1567 109.818 32 106.811 32H100.376ZM103.346 29.2775H106.646C108.81 29.2775 110.423 28.7 111.486 27.545C112.568 26.3717 113.109 24.6117 113.109 22.265C113.109 19.8817 112.568 18.1125 111.486 16.9575C110.423 15.7842 108.81 15.1975 106.646 15.1975H103.346V29.2775ZM117.988 32V12.475H130.693V15.1975H120.958V20.89H130.363V23.53H120.958V29.2775H130.913V32H117.988ZM133.156 32V12.475H140.939C142.332 12.475 143.533 12.7133 144.541 13.19C145.549 13.6667 146.329 14.345 146.879 15.225C147.429 16.105 147.704 17.15 147.704 18.36C147.704 19.24 147.502 20.0283 147.099 20.725C146.714 21.4217 146.191 21.9808 145.531 22.4025C144.889 22.8058 144.202 23.035 143.469 23.09L143.331 22.8425C144.559 22.8425 145.513 23.1267 146.191 23.695C146.869 24.245 147.264 25.1158 147.374 26.3075L147.896 32H144.899L144.431 26.6925C144.376 25.9042 144.11 25.3267 143.634 24.96C143.157 24.575 142.378 24.3825 141.296 24.3825H136.126V32H133.156ZM136.126 21.66H140.994C142.112 21.66 142.992 21.385 143.634 20.835C144.294 20.2667 144.624 19.4692 144.624 18.4425C144.624 17.3975 144.294 16.6 143.634 16.05C142.974 15.4817 142.011 15.1975 140.746 15.1975H136.126V21.66Z" fill="white"/>
<path d="M88.5 0.5C112.91 0.5 134.992 2.95992 150.958 6.92871C158.945 8.91407 165.373 11.27 169.792 13.8672C174.245 16.4846 176.5 19.2497 176.5 22C176.5 24.7503 174.245 27.5154 169.792 30.1328C165.373 32.73 158.945 35.0859 150.958 37.0713C134.992 41.0401 112.91 43.5 88.5 43.5C64.09 43.5 42.0075 41.0401 26.042 37.0713C18.0554 35.0859 11.6271 32.73 7.20801 30.1328C2.75462 27.5154 0.5 24.7503 0.5 22C0.5 19.2497 2.75462 16.4846 7.20801 13.8672C11.6271 11.27 18.0554 8.91407 26.042 6.92871C42.0075 2.95992 64.09 0.5 88.5 0.5Z" stroke="white"/>
</svg>
