<?xml version="1.0" encoding="UTF-8" standalone="no"?><!DOCTYPE svg PUBLIC "-//W3C//DTD SVG 1.1//EN" "http://www.w3.org/Graphics/SVG/1.1/DTD/svg11.dtd"><svg xmlns="http://www.w3.org/2000/svg" xmlns:xlink="http://www.w3.org/1999/xlink" version="1.1" width="131" height="50" viewBox="0 0 131 50">
<desc>Created with SVGMaker Editor 3.0.0</desc>
<defs>
</defs>
<path transform="translate(0,0)" style="stroke: rgb(255,255,255); fill: none" stroke-linecap="round" d="M 65.5 0.5 C 83.5421 0.5 99.8538 3.29186 111.637 7.78906 C 117.53 10.0383 122.265 12.7046 125.518 15.6396 C 128.77 18.5748 130.5 21.7391 130.5 25 C 130.5 28.2609 128.77 31.4252 125.518 34.3604 C 122.265 37.2954 117.53 39.9617 111.637 42.2109 C 99.8538 46.7081 83.5421 49.5 65.5 49.5 C 47.4579 49.5 31.1462 46.7081 19.3633 42.2109 C 13.4702 39.9617 8.73502 37.2954 5.48242 34.3604 C 2.22975 31.4252 0.5 28.2609 0.5 25 C 0.5 21.7391 2.22975 18.5748 5.48242 15.6396 C 8.73502 12.7046 13.4702 10.0383 19.3633 7.78906 C 31.1462 3.29186 47.4579 0.5 65.5 0.5 Z M 32.9502 36.8633 L 37.334 36.8633 L 37.334 20.5576 L 46.5186 36.6123 L 46.6621 36.8633 L 51.9004 36.8633 L 51.9004 13.6758 L 47.5176 13.6758 L 47.5176 30.377 L 38.1768 13.9297 L 38.0332 13.6758 L 32.9502 13.6758 L 32.9502 36.8633 Z M 54.1748 36.8633 L 69.8984 36.8633 L 69.8984 32.7695 L 58.5586 32.7695 L 58.5586 27.2383 L 69.2715 27.2383 L 69.2715 23.2383 L 58.5586 23.2383 L 58.5586 17.7695 L 69.6475 17.7695 L 69.6475 13.6758 L 54.1748 13.6758 L 54.1748 36.8633 Z M 70.6094 14.3047 L 76.498 36.4922 L 76.5967 36.8633 L 81.3174 36.8633 L 81.4131 36.4873 L 85.0635 22.1953 L 88.7139 36.4873 L 88.8105 36.8633 L 93.5303 36.8633 L 93.6289 36.4922 L 99.5498 14.3047 L 99.7178 13.6758 L 95.0088 13.6758 L 94.916 14.0576 L 91.1074 29.6123 L 87.2725 14.0566 L 87.1787 13.6758 L 82.9492 13.6758 L 82.8555 14.0566 L 79.0176 29.6191 L 75.1807 14.0566 L 75.0869 13.6758 L 70.4424 13.6758 L 70.6094 14.3047 Z M 74.3027 14.6758 L 78.5322 31.8271 L 79.5029 31.8271 L 83.7324 14.6758 L 86.3945 14.6758 L 90.624 31.8271 L 91.5957 31.8262 L 95.7939 14.6758 L 98.415 14.6758 L 92.7617 35.8633 L 89.5869 35.8633 L 85.5479 20.0527 L 84.5791 20.0527 L 80.541 35.8633 L 77.3662 35.8633 L 71.7422 14.6758 L 74.3027 14.6758 Z M 68.6475 14.6758 L 68.6475 16.7695 L 57.5586 16.7695 L 57.5586 24.2383 L 68.2715 24.2383 L 68.2715 26.2383 L 57.5586 26.2383 L 57.5586 33.7695 L 68.8984 33.7695 L 68.8984 35.8633 L 55.1748 35.8633 L 55.1748 14.6758 L 68.6475 14.6758 Z M 37.4512 14.6758 L 47.582 32.5166 L 48.5176 34.1631 L 48.5176 14.6758 L 50.9004 14.6758 L 50.9004 35.8633 L 47.2412 35.8633 L 37.2676 18.4277 L 36.334 16.7949 L 36.334 35.8633 L 33.9502 35.8633 L 33.9502 14.6758 L 37.4512 14.6758 Z"/>
<path transform="translate(0,0)" style="stroke: rgb(255,253,253); stroke-width: 2; stroke-linecap: round; stroke-linejoin: round; stroke-miterlimit: 10; fill: none" stroke-linecap="round" d="M 35.798 15.7 Q 35.8 15.7 35.85 15.7 Q 35.9 15.7 35.95 15.7 Q 36 15.7 36.05 15.75 Q 36.1 15.8 36.2 15.8 Q 36.3 15.8 36.35 15.9 Q 36.4 16 36.55 16.1 Q 36.7 16.2 36.85 16.3 Q 37 16.4 37.05 16.5 Q 37.1 16.6 37.1 16.65 Q 37.1 16.7 37.15 16.8 Q 37.2 16.9 37.3 16.95 Q 37.4 17 37.5 17.1 Q 37.6 17.2 37.65 17.3 Q 37.7 17.4 37.75 17.5 Q 37.8 17.6 37.85 17.7 Q 37.9 17.8 38 17.9 Q 38.1 18 38.15 18.15 Q 38.2 18.3 38.25 18.4 Q 38.3 18.5 38.4 18.6 Q 38.5 18.7 38.55 18.8 Q 38.6 18.9 38.6 18.95 Q 38.6 19 38.6 19.05 Q 38.6 19.1 38.65 19.15 Q 38.7 19.2 38.7 19.25 Q 38.7 19.3 38.7 19.35 Q 38.7 19.4 38.7 19.35 Q 38.7 19.3 38.7 19.25 Q 38.7 19.2 38.7 19.25 Q 38.7 19.3 38.75 19.4 Q 38.8 19.5 38.85 19.65 Q 38.9 19.8 39.05 20.05 Q 39.2 20.3 39.3 20.4 Q 39.4 20.5 39.45 20.6 Q 39.5 20.7 39.55 20.7 Q 39.6 20.7 39.6 20.75 Q 39.6 20.8 39.6 20.9 Q 39.6 21 39.65 21.05 Q 39.7 21.1 39.75 21.1 Q 39.8 21.1 39.85 21.2 Q 39.9 21.3 40 21.4 Q 40.1 21.5 40.15 21.65 Q 40.2 21.8 40.3 21.9 Q 40.4 22 40.45 22.05 Q 40.5 22.1 40.55 22.2 Q 40.6 22.3 40.65 22.45 Q 40.7 22.6 40.8 22.75 Q 40.9 22.9 41 23.1 Q 41.1 23.3 41.2 23.4 Q 41.3 23.5 41.4 23.7 Q 41.5 23.9 41.6 24.1 Q 41.7 24.3 41.75 24.45 Q 41.8 24.6 41.85 24.75 Q 41.9 24.9 42 25.05 Q 42.1 25.2 42.15 25.25 Q 42.2 25.3 42.3 25.45 Q 42.4 25.6 42.45 25.7 Q 42.5 25.8 42.5 25.95 Q 42.5 26.1 42.6 26.2 Q 42.7 26.3 42.75 26.4 Q 42.8 26.5 42.8 26.55 Q 42.8 26.6 42.85 26.65 Q 42.9 26.7 42.9 26.75 Q 42.9 26.8 42.95 26.9 Q 43 27 43.05 27.05 Q 43.1 27.1 43.15 27.2 Q 43.2 27.3 43.25 27.4 Q 43.3 27.5 43.4 27.6 Q 43.5 27.7 43.5 27.8 Q 43.5 27.9 43.55 27.95 Q 43.6 28 43.65 28.05 Q 43.7 28.1 43.75 28.15 Q 43.8 28.2 43.8 28.25 Q 43.8 28.3 43.9 28.4 Q 44 28.5 44.05 28.6 Q 44.1 28.7 44.2 28.8 Q 44.3 28.9 44.35 29 Q 44.4 29.1 44.4 29.2 Q 44.4 29.3 44.55 29.45 Q 44.7 29.6 44.7 29.75 Q 44.7 29.9 44.8 30.05 Q 44.9 30.2 45 30.4 Q 45.1 30.6 45.15 30.7 Q 45.2 30.8 45.25 30.95 Q 45.3 31.1 45.35 31.15 Q 45.4 31.2 45.45 31.25 Q 45.5 31.3 45.55 31.4 Q 45.6 31.5 45.7 31.7 Q 45.8 31.9 45.85 32.05 Q 45.9 32.2 45.95 32.4 Q 46 32.6 46.05 32.7 Q 46.1 32.8 46.2 32.95 Q 46.3 33.1 46.3 33.2 Q 46.3 33.3 46.35 33.4 Q 46.4 33.5 46.45 33.6 Q 46.5 33.7 46.55 33.85 Q 46.6 34 46.7 34.1 Q 46.8 34.2 46.85 34.35 Q 46.9 34.5 46.9 34.6 Q 46.9 34.7 46.95 34.75 Q 47 34.8 47.05 34.9 Q 47.1 35 47.15 35.05 Q 47.2 35.1 47.3 35.1 Q 47.4 35.1 47.45 35.15 Q 47.5 35.2 47.55 35.2 Q 47.6 35.2 47.65 35.2 Q 47.7 35.2 47.8 35.25 Q 47.9 35.3 47.95 35.3 Q 48 35.3 48.1 35.3 Q 48.2 35.3 48.25 35.3 Q 48.3 35.3 48.35 35.3 Q 48.4 35.3 48.45 35.3 Q 48.5 35.3 48.55 35.25 Q 48.6 35.2 48.6 35.15 Q 48.6 35.1 48.65 35.05 Q 48.7 35 48.75 34.85 Q 48.8 34.7 48.85 34.55 Q 48.9 34.4 48.95 34.2 Q 49 34 49.05 33.8 Q 49.1 33.6 49.1 33.5 Q 49.1 33.4 49.15 33.4 Q 49.2 33.4 49.25 33.55 Q 49.3 33.7 49.3 33.9 Q 49.3 34.1 49.35 34.35 Q 49.4 34.6 49.45 34.85 Q 49.5 35.1 49.55 35.3 Q 49.6 35.5 49.6 35.55 Q 49.6 35.6 49.6 35.65 Q 49.6 35.7 49.6 35.65 Q 49.6 35.6 49.6 35.45 Q 49.6 35.3 49.6 35.1 Q 49.6 34.9 49.55 34.8 Q 49.5 34.7 49.5 34.6 Q 49.5 34.5 49.5 34.45 Q 49.5 34.4 49.45 34.35 Q 49.4 34.3 49.4 34.25 Q 49.4 34.2 49.4 34.1 Q 49.4 34 49.4 33.95 Q 49.4 33.9 49.35 33.9 Q 49.3 33.9 49.2 33.85 Q 49.1 33.8 49.05 33.8 Q 49 33.8 48.85 33.8 Q 48.7 33.8 48.5 33.8 Q 48.3 33.8 48.1 33.85 Q 47.9 33.9 47.85 33.9 Q 47.8 33.9 47.65 33.9 Q 47.5 33.9 47.4 33.9 Q 47.3 33.9 47.15 33.9 Q 47 33.9 46.95 33.85 Q 46.9 33.8 46.95 33.8 Q 47 33.8 47.2 33.8 Q 47.4 33.8 47.7 33.85 Q 48 33.9 48.35 33.9 Q 48.7 33.9 48.85 33.9 Q 49 33.9 49.05 33.9 Q 49.1 33.9 49.1 33.8 Q 49.1 33.7 49.1 33.55 Q 49.1 33.4 49.15 33.15 Q 49.2 32.9 49.25 32.6 Q 49.3 32.3 49.35 32 Q 49.4 31.7 49.4 31.3 Q 49.4 30.9 49.45 30.55 Q 49.5 30.2 49.5 29.9 Q 49.5 29.6 49.45 29.4 Q 49.4 29.2 49.4 29 Q 49.4 28.8 49.4 28.6 Q 49.4 28.4 49.4 28.25 Q 49.4 28.1 49.35 28.1 Q 49.3 28.1 49.35 28.35 Q 49.4 28.6 49.55 29.05 Q 49.7 29.5 49.75 30 Q 49.8 30.5 49.85 31 Q 49.9 31.5 49.9 31.9 Q 49.9 32.3 49.9 32.45 Q 49.9 32.6 49.9 32.7 Q 49.9 32.8 49.9 32.75 Q 49.9 32.7 49.85 32.4 Q 49.8 32.1 49.75 31.75 Q 49.7 31.4 49.6 30.95 Q 49.5 30.5 49.45 30.05 Q 49.4 29.6 49.35 29 Q 49.3 28.4 49.25 27.8 Q 49.2 27.2 49.2 26.7 Q 49.2 26.2 49.15 25.8 Q 49.1 25.4 49.1 25.2 Q 49.1 25 49.1 24.85 Q 49.1 24.7 49.1 24.6 Q 49.1 24.5 49.1 24.4 Q 49.1 24.3 49.1 24.15 Q 49.1 24 49.05 23.85 Q 49 23.7 49 23.45 Q 49 23.2 49 22.9 Q 49 22.6 49.05 22.35 Q 49.1 22.1 49.1 21.8 Q 49.1 21.5 49.15 21.25 Q 49.2 21 49.2 20.75 Q 49.2 20.5 49.2 20.35 Q 49.2 20.2 49.2 19.9 Q 49.2 19.6 49.25 19.4 Q 49.3 19.2 49.3 19 Q 49.3 18.8 49.35 18.5 Q 49.4 18.2 49.45 17.9 Q 49.5 17.6 49.55 17.35 Q 49.6 17.1 49.6 16.8 Q 49.6 16.5 49.65 16.25 Q 49.7 16 49.75 15.75 Q 49.8 15.5 49.8 15.35 Q 49.8 15.2 49.8 15.15 Q 49.8 15.1 49.8 15.05 Q 49.8 15 49.8 15.05 Q 49.8 15.1 49.8 15.5 Q 49.8 15.9 49.85 16.4 Q 49.9 16.9 49.85 17.4 Q 49.8 17.9 49.85 18.4 Q 49.9 18.9 49.9 19.4 Q 49.9 19.9 49.95 20.4 Q 50 20.9 50 21.3 Q 50 21.7 50 22.15 Q 50 22.6 50 23 Q 50 23.4 50 23.75 Q 50 24.1 50 24.4 Q 50 24.7 50 25.1 Q 50 25.5 49.95 25.85 Q 49.9 26.2 49.9 26.55 Q 49.9 26.9 49.85 27.15 Q 49.8 27.4 49.8 27.6 Q 49.8 27.8 49.75 28 Q 49.7 28.2 49.7 28.3 Q 49.7 28.4 49.65 28.55 Q 49.6 28.7 49.6 28.75 Q 49.6 28.8 49.55 28.85 L 49.498 28.902"/>
<path transform="translate(0,0)" style="stroke: rgb(255,253,253); stroke-width: 2; stroke-linecap: round; stroke-linejoin: round; stroke-miterlimit: 10; fill: none" stroke-linecap="round" d="M 34.9 34.202 Q 34.9 34.2 34.9 34.25 Q 34.9 34.3 34.9 34.25 Q 34.9 34.2 34.9 33.95 Q 34.9 33.7 34.9 33.5 Q 34.9 33.3 34.9 33.25 Q 34.9 33.2 34.9 33.25 Q 34.9 33.3 34.9 33.65 Q 34.9 34 34.9 34.25 Q 34.9 34.5 34.9 34.6 Q 34.9 34.7 34.9 34.8 Q 34.9 34.9 34.9 34.95 Q 34.9 35 34.9 35.05 Q 34.9 35.1 34.9 35.15 Q 34.9 35.2 34.9 35.15 Q 34.9 35.1 34.9 35 Q 34.9 34.9 34.9 34.8 Q 34.9 34.7 34.85 34.65 Q 34.8 34.6 34.8 34.45 Q 34.8 34.3 34.8 33.95 Q 34.8 33.6 34.85 33.25 Q 34.9 32.9 34.95 32.5 Q 35 32.1 35 31.75 Q 35 31.4 35.05 31.2 Q 35.1 31 35.15 30.85 Q 35.2 30.7 35.2 30.6 Q 35.2 30.5 35.2 30.4 Q 35.2 30.3 35.25 30.15 Q 35.3 30 35.3 29.7 Q 35.3 29.4 35.3 29.05 Q 35.3 28.7 35.3 28.45 Q 35.3 28.2 35.35 28.15 Q 35.4 28.1 35.4 28.15 Q 35.4 28.2 35.4 28.4 Q 35.4 28.6 35.4 28.9 Q 35.4 29.2 35.45 29.55 Q 35.5 29.9 35.5 30.2 Q 35.5 30.5 35.5 30.7 Q 35.5 30.9 35.5 31.15 Q 35.5 31.4 35.5 31.6 Q 35.5 31.8 35.5 31.85 Q 35.5 31.9 35.5 31.95 Q 35.5 32 35.5 31.95 Q 35.5 31.9 35.5 31.7 Q 35.5 31.5 35.45 31.15 Q 35.4 30.8 35.35 30.35 Q 35.3 29.9 35.2 29.4 Q 35.1 28.9 35.05 28.35 Q 35 27.8 35 27.25 Q 35 26.7 35 26.2 Q 35 25.7 35 25.25 Q 35 24.8 35 24.4 Q 35 24 35 23.7 Q 35 23.4 35.05 23.25 Q 35.1 23.1 35.1 23.3 Q 35.1 23.5 35.15 23.9 Q 35.2 24.3 35.2 24.7 Q 35.2 25.1 35.2 25.5 Q 35.2 25.9 35.2 26.2 Q 35.2 26.5 35.2 26.7 Q 35.2 26.9 35.2 27 Q 35.2 27.1 35.2 26.75 Q 35.2 26.4 35.2 26.05 Q 35.2 25.7 35.1 25.3 Q 35 24.9 34.9 24.45 Q 34.8 24 34.75 23.6 Q 34.7 23.2 34.65 22.8 Q 34.6 22.4 34.6 22 Q 34.6 21.6 34.55 21.3 Q 34.5 21 34.45 20.8 Q 34.4 20.6 34.4 20.45 Q 34.4 20.3 34.4 20.1 Q 34.4 19.9 34.4 19.75 Q 34.4 19.6 34.4 19.4 Q 34.4 19.2 34.4 19.1 Q 34.4 19 34.4 18.9 Q 34.4 18.8 34.45 18.7 Q 34.5 18.6 34.5 18.55 Q 34.5 18.5 34.5 18.35 Q 34.5 18.2 34.5 18.1 Q 34.5 18 34.5 17.9 Q 34.5 17.8 34.5 17.55 Q 34.5 17.3 34.5 17.05 Q 34.5 16.8 34.5 16.6 Q 34.5 16.4 34.55 16.2 Q 34.6 16 34.6 15.95 Q 34.6 15.9 34.6 15.75 Q 34.6 15.6 34.6 15.55 Q 34.6 15.5 34.65 15.5 Q 34.7 15.5 34.7 15.6 Q 34.7 15.7 34.8 16.05 Q 34.9 16.4 34.9 16.65 Q 34.9 16.9 34.95 17.2 Q 35 17.5 35 17.85 Q 35 18.2 35.05 18.6 Q 35.1 19 35.1 19.45 Q 35.1 19.9 35.1 20.35 Q 35.1 20.8 35.1 21.1 Q 35.1 21.4 35.1 21.75 Q 35.1 22.1 35.1 22.3 Q 35.1 22.5 35.1 22.65 L 35.1 22.802"/>
<path transform="translate(0,0)" style="stroke: rgb(255,255,255); stroke-width: 2; stroke-linecap: round; stroke-linejoin: round; stroke-miterlimit: 10; fill: none" stroke-linecap="round" d="M 35.098 17 L 35.102 17"/>
<path transform="translate(0,0)" style="stroke: rgb(255,255,255); stroke-width: 2; stroke-linecap: round; stroke-linejoin: round; stroke-miterlimit: 10; fill: none" stroke-linecap="round" d="M 56.4 15.998 Q 56.4 16 56.4 16.05 Q 56.4 16.1 56.4 16.2 Q 56.4 16.3 56.4 16.45 Q 56.4 16.6 56.35 16.7 Q 56.3 16.8 56.3 16.85 Q 56.3 16.9 56.3 16.8 Q 56.3 16.7 56.3 16.5 Q 56.3 16.3 56.3 16.2 Q 56.3 16.1 56.3 16.05 Q 56.3 16 56.3 15.9 Q 56.3 15.8 56.35 15.75 Q 56.4 15.7 56.45 15.6 Q 56.5 15.5 56.55 15.45 Q 56.6 15.4 56.6 15.35 Q 56.6 15.3 56.65 15.3 Q 56.7 15.3 56.8 15.3 Q 56.9 15.3 57 15.35 Q 57.1 15.4 57.3 15.45 Q 57.5 15.5 57.7 15.55 Q 57.9 15.6 58.1 15.65 Q 58.3 15.7 58.4 15.75 Q 58.5 15.8 58.65 15.8 Q 58.8 15.8 58.9 15.85 Q 59 15.9 59.2 15.95 Q 59.4 16 59.65 16.05 Q 59.9 16.1 60.05 16.1 Q 60.2 16.1 60.3 16.15 Q 60.4 16.2 60.6 16.2 Q 60.8 16.2 60.95 16.2 Q 61.1 16.2 61.3 16.2 Q 61.5 16.2 61.65 16.2 Q 61.8 16.2 61.85 16.2 Q 61.9 16.2 62.05 16.2 Q 62.2 16.2 62.25 16.2 Q 62.3 16.2 62.5 16.2 Q 62.7 16.2 62.9 16.2 Q 63.1 16.2 63.35 16.2 Q 63.6 16.2 63.75 16.2 Q 63.9 16.2 64.05 16.2 Q 64.2 16.2 64.4 16.2 Q 64.6 16.2 64.75 16.15 Q 64.9 16.1 65 16.1 Q 65.1 16.1 65.2 16.1 Q 65.3 16.1 65.35 16.05 Q 65.4 16 65.45 16 Q 65.5 16 65.55 16 Q 65.6 16 65.65 16 Q 65.7 16 65.85 16 Q 66 16 66.15 15.95 Q 66.3 15.9 66.35 15.9 Q 66.4 15.9 66.45 15.9 Q 66.5 15.9 66.6 15.9 Q 66.7 15.9 66.8 15.85 Q 66.9 15.8 67 15.8 Q 67.1 15.8 67.2 15.8 Q 67.3 15.8 67.35 15.8 Q 67.4 15.8 67.5 15.8 Q 67.6 15.8 67.7 15.8 Q 67.8 15.8 67.9 15.75 Q 68 15.7 68.05 15.7 Q 68.1 15.7 67.95 15.65 Q 67.8 15.6 67.7 15.6 Q 67.6 15.6 67.35 15.55 Q 67.1 15.5 66.85 15.4 Q 66.6 15.3 66.25 15.25 Q 65.9 15.2 65.45 15.15 Q 65 15.1 64.65 15.05 Q 64.3 15 63.85 14.95 Q 63.4 14.9 63.1 14.9 Q 62.8 14.9 62.5 14.9 Q 62.2 14.9 61.9 14.95 Q 61.6 15 61.45 15 Q 61.3 15 61.05 15 Q 60.8 15 60.6 15 Q 60.4 15 60.05 15.05 Q 59.7 15.1 59.5 15.1 Q 59.3 15.1 59.2 15.15 Q 59.1 15.2 59.05 15.2 Q 59 15.2 58.95 15.25 Q 58.9 15.3 58.8 15.3 Q 58.7 15.3 58.6 15.3 Q 58.5 15.3 58.4 15.35 Q 58.3 15.4 58.25 15.45 Q 58.2 15.5 58.15 15.5 Q 58.1 15.5 58.05 15.5 Q 58 15.5 57.9 15.55 L 57.798 15.602"/>
<path transform="translate(0,0)" style="stroke: rgb(255,255,255); stroke-width: 2; stroke-linecap: round; stroke-linejoin: round; stroke-miterlimit: 10; fill: none" stroke-linecap="round" d="M 56.4 16.298 Q 56.4 16.3 56.4 16.45 Q 56.4 16.6 56.4 16.7 Q 56.4 16.8 56.4 16.9 Q 56.4 17 56.4 17.1 Q 56.4 17.2 56.4 17.35 Q 56.4 17.5 56.4 17.8 Q 56.4 18.1 56.4 18.4 Q 56.4 18.7 56.35 19 Q 56.3 19.3 56.3 19.65 Q 56.3 20 56.3 20.4 Q 56.3 20.8 56.25 21.15 Q 56.2 21.5 56.2 21.8 Q 56.2 22.1 56.2 22.4 Q 56.2 22.7 56.15 22.95 Q 56.1 23.2 56.1 23.35 Q 56.1 23.5 56.1 23.75 Q 56.1 24 56.1 24.2 Q 56.1 24.4 56.1 24.55 Q 56.1 24.7 56.1 24.75 Q 56.1 24.8 56.1 24.85 Q 56.1 24.9 56.1 25 Q 56.1 25.1 56.1 25.15 Q 56.1 25.2 56.1 25.15 Q 56.1 25.1 56.1 24.75 Q 56.1 24.4 56.1 24.05 Q 56.1 23.7 56.15 23.4 Q 56.2 23.1 56.2 22.8 Q 56.2 22.5 56.2 22.45 Q 56.2 22.4 56.2 22.5 Q 56.2 22.6 56.2 22.9 Q 56.2 23.2 56.3 23.5 Q 56.4 23.8 56.45 24 Q 56.5 24.2 56.55 24.45 Q 56.6 24.7 56.6 24.85 Q 56.6 25 56.65 25.15 Q 56.7 25.3 56.7 25.35 Q 56.7 25.4 56.75 25.4 Q 56.8 25.4 56.9 25.4 Q 57 25.4 57.15 25.45 Q 57.3 25.5 57.45 25.55 Q 57.6 25.6 57.8 25.65 Q 58 25.7 58.25 25.75 Q 58.5 25.8 58.75 25.8 Q 59 25.8 59.15 25.8 Q 59.3 25.8 59.5 25.85 Q 59.7 25.9 59.8 25.9 Q 59.9 25.9 60.15 25.9 Q 60.4 25.9 60.65 25.9 Q 60.9 25.9 61.1 25.85 Q 61.3 25.8 61.45 25.8 Q 61.6 25.8 61.8 25.75 Q 62 25.7 62.2 25.7 Q 62.4 25.7 62.6 25.7 Q 62.8 25.7 62.9 25.7 Q 63 25.7 63.1 25.7 Q 63.2 25.7 63.25 25.7 Q 63.3 25.7 63.45 25.7 Q 63.6 25.7 63.75 25.65 Q 63.9 25.6 64.05 25.6 Q 64.2 25.6 64.25 25.6 Q 64.3 25.6 64.4 25.6 Q 64.5 25.6 64.6 25.55 Q 64.7 25.5 64.85 25.5 Q 65 25.5 65.15 25.5 Q 65.3 25.5 65.45 25.5 Q 65.6 25.5 65.75 25.5 Q 65.9 25.5 66 25.5 Q 66.1 25.5 66.2 25.45 Q 66.3 25.4 66.4 25.4 Q 66.5 25.4 66.6 25.35 Q 66.7 25.3 66.75 25.3 Q 66.8 25.3 66.85 25.3 Q 66.9 25.3 66.95 25.3 Q 67 25.3 67.1 25.25 Q 67.2 25.2 67.3 25.15 Q 67.4 25.1 67.4 25.05 Q 67.4 25 67.3 25 Q 67.2 25 67 25 Q 66.8 25 66.5 24.95 Q 66.2 24.9 65.7 24.9 Q 65.2 24.9 64.6 24.95 Q 64 25 63.4 25 Q 62.8 25 62.25 25.1 Q 61.7 25.2 61.2 25.3 Q 60.7 25.4 60.35 25.45 Q 60 25.5 59.7 25.5 Q 59.4 25.5 59.25 25.5 Q 59.1 25.5 58.9 25.5 Q 58.7 25.5 58.55 25.45 Q 58.4 25.4 58.3 25.35 Q 58.2 25.3 58.15 25.3 Q 58.1 25.3 58.05 25.25 Q 58 25.2 58 25.15 Q 58 25.1 57.95 25.1 Q 57.9 25.1 57.9 25.05 Q 57.9 25 57.85 25 Q 57.8 25 57.8 24.95 Q 57.8 24.9 57.85 24.9 Q 57.9 24.9 58 24.9 Q 58.1 24.9 58.25 24.9 Q 58.4 24.9 58.6 24.9 Q 58.8 24.9 59.15 24.9 Q 59.5 24.9 59.75 24.85 Q 60 24.8 60.1 24.8 Q 60.2 24.8 60.2 24.75 Q 60.2 24.7 60.1 24.65 Q 60 24.6 59.65 24.55 Q 59.3 24.5 58.95 24.45 Q 58.6 24.4 58.15 24.3 Q 57.7 24.2 57.2 24.2 Q 56.7 24.2 56.35 24.2 Q 56 24.2 55.75 24.15 Q 55.5 24.1 55.4 24.1 Q 55.3 24.1 55.3 24.05 Q 55.3 24 55.3 23.85 Q 55.3 23.7 55.35 23.5 Q 55.4 23.3 55.45 23.2 Q 55.5 23.1 55.65 22.9 Q 55.8 22.7 55.85 22.65 Q 55.9 22.6 56 22.5 Q 56.1 22.4 56.15 22.4 Q 56.2 22.4 56.2 22.45 Q 56.2 22.5 56.2 22.65 Q 56.2 22.8 56.2 22.9 Q 56.2 23 56.2 23.2 Q 56.2 23.4 56.2 23.75 Q 56.2 24.1 56.2 24.45 Q 56.2 24.8 56.15 25.15 Q 56.1 25.5 56.05 25.8 Q 56 26.1 55.95 26.35 Q 55.9 26.6 55.9 26.8 Q 55.9 27 55.9 27.2 Q 55.9 27.4 55.9 27.6 Q 55.9 27.8 55.85 28.05 Q 55.8 28.3 55.8 28.5 Q 55.8 28.7 55.8 28.95 Q 55.8 29.2 55.8 29.5 Q 55.8 29.8 55.8 30.1 Q 55.8 30.4 55.8 30.7 Q 55.8 31 55.75 31.15 Q 55.7 31.3 55.7 31.35 Q 55.7 31.4 55.7 31.45 Q 55.7 31.5 55.65 31.25 Q 55.6 31 55.5 30.55 Q 55.4 30.1 55.4 29.65 Q 55.4 29.2 55.4 28.75 Q 55.4 28.3 55.4 27.9 Q 55.4 27.5 55.4 27.2 Q 55.4 26.9 55.4 26.8 Q 55.4 26.7 55.45 26.65 Q 55.5 26.6 55.5 26.55 Q 55.5 26.5 55.55 26.45 Q 55.6 26.4 55.6 26.35 Q 55.6 26.3 55.65 26.3 Q 55.7 26.3 55.7 26.35 Q 55.7 26.4 55.75 26.8 Q 55.8 27.2 55.9 27.55 Q 56 27.9 56.05 28.25 Q 56.1 28.6 56.1 29 Q 56.1 29.4 56.1 29.95 Q 56.1 30.5 56.1 30.9 Q 56.1 31.3 56.1 31.65 Q 56.1 32 56.1 32.25 Q 56.1 32.5 56.05 32.7 Q 56 32.9 56 32.95 Q 56 33 56 32.8 Q 56 32.6 56 32.05 Q 56 31.5 56 30.9 Q 56 30.3 56 29.65 Q 56 29 56.05 28.45 Q 56.1 27.9 56.05 27.45 Q 56 27 56.1 26.8 Q 56.2 26.6 56.2 26.45 Q 56.2 26.3 56.2 26.1 Q 56.2 25.9 56.2 25.85 Q 56.2 25.8 56.25 25.8 Q 56.3 25.8 56.3 25.95 Q 56.3 26.1 56.4 26.5 Q 56.5 26.9 56.55 27.3 Q 56.6 27.7 56.6 28.2 Q 56.6 28.7 56.6 29.3 Q 56.6 29.9 56.6 30.45 Q 56.6 31 56.6 31.35 Q 56.6 31.7 56.6 32 Q 56.6 32.3 56.6 32.5 Q 56.6 32.7 56.55 32.9 Q 56.5 33.1 56.5 33.2 Q 56.5 33.3 56.5 33.35 Q 56.5 33.4 56.45 33.4 Q 56.4 33.4 56.4 33.45 Q 56.4 33.5 56.4 33.6 Q 56.4 33.7 56.35 33.8 Q 56.3 33.9 56.3 33.95 Q 56.3 34 56.3 34.15 Q 56.3 34.3 56.25 34.35 Q 56.2 34.4 56.2 34.45 Q 56.2 34.5 56.15 34.5 Q 56.1 34.5 56 34.55 Q 55.9 34.6 55.95 34.6 Q 56 34.6 56.1 34.65 Q 56.2 34.7 56.3 34.7 Q 56.4 34.7 56.6 34.7 Q 56.8 34.7 57 34.7 Q 57.2 34.7 57.35 34.7 Q 57.5 34.7 57.6 34.7 Q 57.7 34.7 57.75 34.7 Q 57.8 34.7 57.95 34.7 Q 58.1 34.7 58.2 34.7 Q 58.3 34.7 58.45 34.7 Q 58.6 34.7 58.75 34.7 Q 58.9 34.7 59.1 34.65 Q 59.3 34.6 59.45 34.6 Q 59.6 34.6 59.8 34.6 Q 60 34.6 60.1 34.55 Q 60.2 34.5 60.35 34.5 Q 60.5 34.5 60.65 34.5 Q 60.8 34.5 60.95 34.5 Q 61.1 34.5 61.25 34.55 Q 61.4 34.6 61.45 34.6 Q 61.5 34.6 61.55 34.6 Q 61.6 34.6 61.7 34.6 Q 61.8 34.6 61.9 34.6 Q 62 34.6 62.15 34.65 Q 62.3 34.7 62.5 34.7 Q 62.7 34.7 62.85 34.75 Q 63 34.8 63.15 34.8 Q 63.3 34.8 63.35 34.8 Q 63.4 34.8 63.5 34.8 Q 63.6 34.8 63.7 34.8 Q 63.8 34.8 63.9 34.85 Q 64 34.9 64.15 34.9 Q 64.3 34.9 64.35 34.9 Q 64.4 34.9 64.55 34.9 Q 64.7 34.9 64.85 34.9 Q 65 34.9 65.1 34.9 Q 65.2 34.9 65.3 34.95 Q 65.4 35 65.5 35.05 Q 65.6 35.1 65.7 35.1 Q 65.8 35.1 65.85 35.1 Q 65.9 35.1 66 35.1 Q 66.1 35.1 66.15 35.1 Q 66.2 35.1 66.3 35.1 Q 66.4 35.1 66.55 35.1 Q 66.7 35.1 66.8 35.1 Q 66.9 35.1 66.95 35.1 Q 67 35.1 67.05 35.1 Q 67.1 35.1 67.15 35.1 Q 67.2 35.1 67.25 35.05 Q 67.3 35 67.35 35 Q 67.4 35 67.5 34.95 Q 67.6 34.9 67.6 34.8 L 67.6 34.698"/>
<path transform="translate(0,0)" style="stroke: rgb(255,255,255); stroke-width: 2; stroke-linecap: round; stroke-linejoin: round; stroke-miterlimit: 10; fill: none" stroke-linecap="round" d="M 78.8 29.898 Q 78.8 29.9 78.8 29.95 Q 78.8 30 78.8 30.15 Q 78.8 30.3 78.8 30.45 Q 78.8 30.6 78.8 30.8 Q 78.8 31 78.8 31.15 Q 78.8 31.3 78.8 31.45 Q 78.8 31.6 78.8 31.75 Q 78.8 31.9 78.8 32.05 Q 78.8 32.2 78.8 32.3 Q 78.8 32.4 78.8 32.6 Q 78.8 32.8 78.8 32.9 Q 78.8 33 78.85 33.1 L 78.902 33.202"/>
<path transform="translate(0,0)" style="stroke: rgb(255,255,255); stroke-width: 2; stroke-linecap: round; stroke-linejoin: round; stroke-miterlimit: 10; fill: none" stroke-linecap="round" d="M 91.4 29.998 Q 91.4 30 91.4 30.05 Q 91.4 30.1 91.4 30.2 Q 91.4 30.3 91.35 30.4 Q 91.3 30.5 91.3 30.55 Q 91.3 30.6 91.3 30.65 Q 91.3 30.7 91.3 30.75 Q 91.3 30.8 91.3 30.9 L 91.3 31.002"/>
<path transform="translate(0,0)" style="stroke: rgb(255,255,255); stroke-width: 2; stroke-linecap: round; stroke-linejoin: round; stroke-miterlimit: 10; fill: none" stroke-linecap="round" d="M 85.202 21.502 Q 85.2 21.5 85.2 21.4 Q 85.2 21.3 85.15 21.25 Q 85.1 21.2 85.1 21.05 Q 85.1 20.9 85.05 20.7 Q 85 20.5 85 20.35 Q 85 20.2 85 20.1 Q 85 20 84.95 19.9 Q 84.9 19.8 84.9 19.75 Q 84.9 19.7 84.9 19.6 Q 84.9 19.5 84.9 19.4 Q 84.9 19.3 84.85 19.15 Q 84.8 19 84.8 18.8 Q 84.8 18.6 84.8 18.45 Q 84.8 18.3 84.8 18.15 Q 84.8 18 84.8 17.85 Q 84.8 17.7 84.8 17.55 Q 84.8 17.4 84.8 17.25 Q 84.8 17.1 84.8 16.95 Q 84.8 16.8 84.8 16.65 Q 84.8 16.5 84.8 16.4 Q 84.8 16.3 84.8 16.15 Q 84.8 16 84.85 15.85 Q 84.9 15.7 84.9 15.6 Q 84.9 15.5 84.9 15.4 Q 84.9 15.3 84.9 15.2 Q 84.9 15.1 84.9 15.05 Q 84.9 15 84.85 15 Q 84.8 15 84.8 15.15 Q 84.8 15.3 84.85 15.45 Q 84.9 15.6 84.9 15.7 Q 84.9 15.8 84.9 15.9 Q 84.9 16 84.9 16.05 Q 84.9 16.1 84.9 16.25 Q 84.9 16.4 84.95 16.55 Q 85 16.7 85.05 16.85 Q 85.1 17 85.1 17.2 Q 85.1 17.4 85.15 17.5 Q 85.2 17.6 85.25 17.7 Q 85.3 17.8 85.3 18 Q 85.3 18.2 85.35 18.3 Q 85.4 18.4 85.4 18.6 Q 85.4 18.8 85.45 19.05 Q 85.5 19.3 85.55 19.55 Q 85.6 19.8 85.65 20 Q 85.7 20.2 85.75 20.4 Q 85.8 20.6 85.8 20.75 Q 85.8 20.9 85.85 21 Q 85.9 21.1 85.9 21.15 Q 85.9 21.2 85.9 21.15 Q 85.9 21.1 85.9 20.65 Q 85.9 20.2 85.9 19.8 Q 85.9 19.4 85.9 18.95 Q 85.9 18.5 85.9 18.1 Q 85.9 17.7 85.9 17.35 Q 85.9 17 85.9 16.7 Q 85.9 16.4 85.9 16.2 Q 85.9 16 85.9 15.9 Q 85.9 15.8 85.9 15.75 Q 85.9 15.7 85.9 15.65 Q 85.9 15.6 85.9 15.55 Q 85.9 15.5 85.9 15.45 Q 85.9 15.4 85.9 15.35 Q 85.9 15.3 85.95 15.55 Q 86 15.8 86.05 16.1 Q 86.1 16.4 86.15 16.75 Q 86.2 17.1 86.25 17.45 Q 86.3 17.8 86.35 18.2 Q 86.4 18.6 86.4 19 Q 86.4 19.4 86.5 19.85 Q 86.6 20.3 86.65 20.7 Q 86.7 21.1 86.75 21.45 Q 86.8 21.8 86.85 22.1 Q 86.9 22.4 86.95 22.6 Q 87 22.8 87.05 23 Q 87.1 23.2 87.15 23.4 Q 87.2 23.6 87.2 23.7 Q 87.2 23.8 87.2 23.85 Q 87.2 23.9 87.2 23.6 Q 87.2 23.3 87.15 22.95 Q 87.1 22.6 87 22.15 Q 86.9 21.7 86.9 21.3 Q 86.9 20.9 86.85 20.7 Q 86.8 20.5 86.8 20.45 Q 86.8 20.4 86.8 20.65 Q 86.8 20.9 86.85 21.25 Q 86.9 21.6 86.95 22 Q 87 22.4 87.1 22.85 Q 87.2 23.3 87.3 23.75 Q 87.4 24.2 87.55 24.75 Q 87.7 25.3 87.75 25.65 Q 87.8 26 87.85 26.2 Q 87.9 26.4 87.9 26.5 Q 87.9 26.6 87.9 26.7 Q 87.9 26.8 87.95 26.85 Q 88 26.9 88 26.7 Q 88 26.5 88 26.25 Q 88 26 88 25.7 Q 88 25.4 87.95 25.2 Q 87.9 25 87.9 24.85 Q 87.9 24.7 87.9 24.65 Q 87.9 24.6 87.95 24.95 Q 88 25.3 88.1 25.55 Q 88.2 25.8 88.25 26.15 Q 88.3 26.5 88.35 26.8 Q 88.4 27.1 88.4 27.5 Q 88.4 27.9 88.5 28.2 Q 88.6 28.5 88.65 28.7 Q 88.7 28.9 88.75 29.05 Q 88.8 29.2 88.8 29.4 Q 88.8 29.6 88.85 29.8 Q 88.9 30 88.95 30.15 Q 89 30.3 89.05 30.45 Q 89.1 30.6 89.1 30.7 Q 89.1 30.8 89.1 30.85 Q 89.1 30.9 89.15 31 Q 89.2 31.1 89.2 31.2 Q 89.2 31.3 89.2 31.35 Q 89.2 31.4 89.25 31.55 Q 89.3 31.7 89.3 31.8 Q 89.3 31.9 89.3 31.95 Q 89.3 32 89.3 32.1 Q 89.3 32.2 89.35 32.25 Q 89.4 32.3 89.45 32.45 Q 89.5 32.6 89.5 32.75 Q 89.5 32.9 89.5 33.05 Q 89.5 33.2 89.5 33.35 Q 89.5 33.5 89.5 33.65 Q 89.5 33.8 89.55 33.85 Q 89.6 33.9 89.6 34 Q 89.6 34.1 89.6 34.2 Q 89.6 34.3 89.65 34.4 Q 89.7 34.5 89.7 34.65 Q 89.7 34.8 89.7 34.85 Q 89.7 34.9 89.75 35 Q 89.8 35.1 89.8 35.15 Q 89.8 35.2 89.8 35.25 Q 89.8 35.3 89.8 35.25 Q 89.8 35.2 89.85 35 Q 89.9 34.8 89.9 34.65 Q 89.9 34.5 89.9 34.4 Q 89.9 34.3 89.9 34.15 Q 89.9 34 89.95 33.8 Q 90 33.6 90 33.45 Q 90 33.3 90.1 33.1 Q 90.2 32.9 90.25 32.75 Q 90.3 32.6 90.3 32.55 Q 90.3 32.5 90.45 32.85 Q 90.6 33.2 90.6 33.5 Q 90.6 33.8 90.6 34.15 Q 90.6 34.5 90.65 34.7 Q 90.7 34.9 90.8 35.05 Q 90.9 35.2 90.9 35 Q 90.9 34.8 90.9 34.5 Q 90.9 34.2 90.9 33.8 Q 90.9 33.4 90.95 33.1 Q 91 32.8 91.1 32.7 Q 91.2 32.6 91.2 32.55 Q 91.2 32.5 91.25 32.6 Q 91.3 32.7 91.35 32.9 Q 91.4 33.1 91.45 33.2 Q 91.5 33.3 91.5 33.4 Q 91.5 33.5 91.6 33.35 Q 91.7 33.2 91.75 33 Q 91.8 32.8 91.8 32.75 Q 91.8 32.7 91.9 32.85 Q 92 33 92 33.25 Q 92 33.5 92.05 33.75 Q 92.1 34 92.1 34.1 Q 92.1 34.2 92.1 34.25 Q 92.1 34.3 92.15 34.35 Q 92.2 34.4 92.2 34.5 Q 92.2 34.6 92.2 34.35 Q 92.2 34.1 92.2 33.95 Q 92.2 33.8 92.2 33.7 Q 92.2 33.6 92.2 33.4 Q 92.2 33.2 92.2 32.85 Q 92.2 32.5 92.2 32.2 Q 92.2 31.9 92.25 31.75 Q 92.3 31.6 92.3 31.85 Q 92.3 32.1 92.3 32.5 Q 92.3 32.9 92.25 33.45 Q 92.2 34 92.2 34.35 Q 92.2 34.7 92.15 34.95 Q 92.1 35.2 92.1 35.3 Q 92.1 35.4 92.1 35.35 Q 92.1 35.3 92.1 35.25 Q 92.1 35.2 92.1 35 Q 92.1 34.8 92.1 34.65 Q 92.1 34.5 92.1 34.3 Q 92.1 34.1 92.1 33.85 Q 92.1 33.6 92.15 33.3 Q 92.2 33 92.25 32.8 Q 92.3 32.6 92.35 32.45 Q 92.4 32.3 92.4 32.2 Q 92.4 32.1 92.5 31.95 Q 92.6 31.8 92.65 31.6 Q 92.7 31.4 92.75 31.1 Q 92.8 30.8 92.9 30.5 Q 93 30.2 93.05 29.95 Q 93.1 29.7 93.15 29.6 Q 93.2 29.5 93.2 29.45 Q 93.2 29.4 93.2 29.35 Q 93.2 29.3 93.2 29.25 Q 93.2 29.2 93.25 29.1 Q 93.3 29 93.35 28.8 Q 93.4 28.6 93.45 28.35 Q 93.5 28.1 93.55 27.85 Q 93.6 27.6 93.65 27.3 Q 93.7 27 93.75 26.8 Q 93.8 26.6 93.8 26.3 Q 93.8 26 93.8 25.65 Q 93.8 25.3 93.85 24.95 Q 93.9 24.6 93.9 24.3 Q 93.9 24 93.9 23.75 Q 93.9 23.5 93.9 23.45 Q 93.9 23.4 93.9 23.45 Q 93.9 23.5 93.9 23.9 Q 93.9 24.3 93.85 24.7 Q 93.8 25.1 93.75 25.55 Q 93.7 26 93.6 26.55 Q 93.5 27.1 93.4 27.6 Q 93.3 28.1 93.25 28.35 Q 93.2 28.6 93.2 28.65 Q 93.2 28.7 93.2 28.4 Q 93.2 28.1 93.2 27.85 Q 93.2 27.6 93.25 27.2 Q 93.3 26.8 93.4 26.4 Q 93.5 26 93.55 25.65 Q 93.6 25.3 93.65 25 Q 93.7 24.7 93.75 24.35 Q 93.8 24 93.85 23.8 Q 93.9 23.6 93.95 23.55 Q 94 23.5 94.35 22.6 Q 94.7 21.7 94.75 21.7 Q 94.8 21.7 94.8 21.65 Q 94.8 21.6 94.85 21.45 Q 94.9 21.3 94.95 21.15 Q 95 21 95.05 20.8 Q 95.1 20.6 95.1 20.45 Q 95.1 20.3 95.2 20.15 Q 95.3 20 95.35 19.8 Q 95.4 19.6 95.4 19.4 Q 95.4 19.2 95.45 18.95 Q 95.5 18.7 95.55 18.45 Q 95.6 18.2 95.7 17.9 Q 95.8 17.6 95.85 17.3 Q 95.9 17 95.95 16.75 Q 96 16.5 96 16.35 Q 96 16.2 96.05 16.1 Q 96.1 16 96.1 15.95 Q 96.1 15.9 96.1 15.8 Q 96.1 15.7 96.1 15.6 Q 96.1 15.5 96.1 15.45 Q 96.1 15.4 96.15 15.35 Q 96.2 15.3 96.35 15.25 Q 96.5 15.2 96.5 15.1 Q 96.5 15 96.55 14.95 Q 96.6 14.9 96.65 15.15 Q 96.7 15.4 96.75 15.75 Q 96.8 16.1 96.8 16.45 Q 96.8 16.8 96.75 17.05 Q 96.7 17.3 96.65 17.6 Q 96.6 17.9 96.55 18.2 Q 96.5 18.5 96.45 18.7 Q 96.4 18.9 96.35 19.1 Q 96.3 19.3 96.25 19.5 Q 96.2 19.7 96.15 19.85 Q 96.1 20 96.05 20.2 Q 96 20.4 95.95 20.7 Q 95.9 21 95.8 21.35 Q 95.7 21.7 95.55 22.05 Q 95.4 22.4 95.3 22.65 Q 95.2 22.9 95.1 23.2 Q 95 23.5 94.9 23.75 Q 94.8 24 94.7 24.2 Q 94.6 24.4 94.55 24.6 Q 94.5 24.8 94.45 24.95 Q 94.4 25.1 94.35 25.3 Q 94.3 25.5 94.2 25.65 L 94.098 25.802"/>
<path transform="translate(0,0)" style="stroke: rgb(255,255,255); stroke-width: 2; stroke-linecap: round; stroke-linejoin: round; stroke-miterlimit: 10; fill: none" stroke-linecap="round" d="M 79.9 31.198 Q 79.9 31.2 79.9 31.35 Q 79.9 31.5 79.9 31.7 Q 79.9 31.9 79.9 32.1 Q 79.9 32.3 79.9 32.5 Q 79.9 32.7 79.9 32.85 Q 79.9 33 79.9 33.1 Q 79.9 33.2 79.9 33.25 Q 79.9 33.3 79.9 33.35 Q 79.9 33.4 79.9 33.5 Q 79.9 33.6 79.9 33.65 Q 79.9 33.7 79.9 33.65 Q 79.9 33.6 79.9 33.45 Q 79.9 33.3 79.95 32.95 Q 80 32.6 80.15 32.2 Q 80.3 31.8 80.45 31.5 Q 80.6 31.2 80.75 30.85 Q 80.9 30.5 81 30.25 Q 81.1 30 81.2 29.8 Q 81.3 29.6 81.35 29.4 Q 81.4 29.2 81.55 29 Q 81.7 28.8 81.8 28.6 Q 81.9 28.4 81.95 28.2 Q 82 28 82.1 27.8 Q 82.2 27.6 82.25 27.4 Q 82.3 27.2 82.4 27.05 Q 82.5 26.9 82.6 26.7 Q 82.7 26.5 82.75 26.3 Q 82.8 26.1 82.85 25.9 Q 82.9 25.7 82.95 25.5 Q 83 25.3 83.05 25 Q 83.1 24.7 83.2 24.5 Q 83.3 24.3 83.3 24.1 Q 83.3 23.9 83.3 23.8 Q 83.3 23.7 83.35 23.55 Q 83.4 23.4 83.4 23.25 Q 83.4 23.1 83.4 22.85 Q 83.4 22.6 83.4 22.25 Q 83.4 21.9 83.4 21.6 Q 83.4 21.3 83.45 21.1 Q 83.5 20.9 83.5 20.8 Q 83.5 20.7 83.5 20.55 Q 83.5 20.4 83.55 20.25 Q 83.6 20.1 83.65 19.9 Q 83.7 19.7 83.75 19.5 Q 83.8 19.3 83.85 19.1 Q 83.9 18.9 84 18.7 Q 84.1 18.5 84.15 18.3 Q 84.2 18.1 84.25 17.9 Q 84.3 17.7 84.35 17.55 Q 84.4 17.4 84.5 17.2 Q 84.6 17 84.6 16.9 Q 84.6 16.8 84.6 16.75 Q 84.6 16.7 84.6 16.65 Q 84.6 16.6 84.6 16.75 Q 84.6 16.9 84.55 17.3 Q 84.5 17.7 84.4 18.2 Q 84.3 18.7 84.2 19.25 Q 84.1 19.8 84 20.3 Q 83.9 20.8 83.8 21.15 Q 83.7 21.5 83.6 21.8 Q 83.5 22.1 83.45 22.35 Q 83.4 22.6 83.3 22.85 Q 83.2 23.1 83.15 23.3 Q 83.1 23.5 83.05 23.7 Q 83 23.9 82.9 24.15 Q 82.8 24.4 82.75 24.65 Q 82.7 24.9 82.65 25.15 Q 82.6 25.4 82.5 25.65 Q 82.4 25.9 82.3 26.15 Q 82.2 26.4 82.15 26.55 Q 82.1 26.7 82.05 26.85 Q 82 27 81.95 27.2 Q 81.9 27.4 81.85 27.6 Q 81.8 27.8 81.75 27.95 Q 81.7 28.1 81.65 28.15 Q 81.6 28.2 81.55 28.35 Q 81.5 28.5 81.5 28.6 Q 81.5 28.7 81.45 28.8 Q 81.4 28.9 81.35 29.05 Q 81.3 29.2 81.3 28.95 Q 81.3 28.7 81.25 28.5 Q 81.2 28.3 81.2 28.1 Q 81.2 27.9 81.2 27.7 Q 81.2 27.5 81.15 27.45 Q 81.1 27.4 81.1 27.55 Q 81.1 27.7 81.1 28.05 Q 81.1 28.4 81.05 28.85 Q 81 29.3 80.85 29.9 Q 80.7 30.5 80.55 31.05 Q 80.4 31.6 80.2 32 Q 80 32.4 79.85 32.75 Q 79.7 33.1 79.65 33.25 Q 79.6 33.4 79.55 33.55 Q 79.5 33.7 79.5 33.75 Q 79.5 33.8 79.45 33.8 Q 79.4 33.8 79.4 33.95 Q 79.4 34.1 79.3 34.2 Q 79.2 34.3 79.2 34.35 Q 79.2 34.4 79.2 34.45 Q 79.2 34.5 79.15 34.55 Q 79.1 34.6 78.95 34.7 Q 78.8 34.8 78.7 34.9 Q 78.6 35 78.55 35 Q 78.5 35 78.4 35.05 Q 78.3 35.1 78.25 35.1 Q 78.2 35.1 78.2 34.9 Q 78.2 34.7 78.2 34.65 Q 78.2 34.6 78.2 34.55 Q 78.2 34.5 78.15 34.4 Q 78.1 34.3 78.1 34.05 Q 78.1 33.8 78.1 33.6 Q 78.1 33.4 78.1 33.25 Q 78.1 33.1 78.05 32.95 Q 78 32.8 78 32.65 Q 78 32.5 78 32.3 Q 78 32.1 77.95 31.9 Q 77.9 31.7 77.85 31.5 Q 77.8 31.3 77.8 31.1 Q 77.8 30.9 77.75 30.8 Q 77.7 30.7 77.7 30.65 Q 77.7 30.6 77.7 30.55 Q 77.7 30.5 77.65 30.45 Q 77.6 30.4 77.55 30.3 Q 77.5 30.2 77.45 30.15 Q 77.4 30.1 77.35 30 Q 77.3 29.9 77.2 29.8 Q 77.1 29.7 77.05 29.6 Q 77 29.5 76.9 29.4 Q 76.8 29.3 76.75 29.15 Q 76.7 29 76.6 28.85 Q 76.5 28.7 76.35 28.5 Q 76.2 28.3 76.2 28.2 Q 76.2 28.1 76.15 27.95 Q 76.1 27.8 76.05 27.65 Q 76 27.5 76 27.4 Q 76 27.3 76 27.4 Q 76 27.5 76.05 27.9 Q 76.1 28.3 76.15 28.65 Q 76.2 29 76.2 29.3 Q 76.2 29.6 76.2 29.9 Q 76.2 30.2 76.2 30.45 Q 76.2 30.7 76.2 31 Q 76.2 31.3 76.25 31.55 Q 76.3 31.8 76.4 32.05 Q 76.5 32.3 76.55 32.4 Q 76.6 32.5 76.6 32.65 Q 76.6 32.8 76.7 32.95 Q 76.8 33.1 76.85 33.3 Q 76.9 33.5 76.95 33.6 Q 77 33.7 77.05 33.75 Q 77.1 33.8 77.1 33.85 Q 77.1 33.9 77.2 33.95 Q 77.3 34 77.35 34.05 Q 77.4 34.1 77.5 34.2 Q 77.6 34.3 77.7 34.35 Q 77.8 34.4 77.85 34.45 Q 77.9 34.5 78.05 34.6 Q 78.2 34.7 78.35 34.8 Q 78.5 34.9 78.6 35 Q 78.7 35.1 78.75 35.1 Q 78.8 35.1 78.9 35.15 Q 79 35.2 79.05 35.25 Q 79.1 35.3 79.15 35.3 Q 79.2 35.3 79.3 35.3 Q 79.4 35.3 79.45 35.35 Q 79.5 35.4 79.6 35.4 Q 79.7 35.4 79.75 35.4 Q 79.8 35.4 79.75 35.2 Q 79.7 35 79.7 34.8 Q 79.7 34.6 79.7 34.45 Q 79.7 34.3 79.6 33.95 Q 79.5 33.6 79.35 33.2 Q 79.2 32.8 79.05 32.45 Q 78.9 32.1 78.75 31.8 Q 78.6 31.5 78.55 31.25 Q 78.5 31 78.35 30.75 Q 78.2 30.5 78.15 30.35 Q 78.1 30.2 78 30 Q 77.9 29.8 77.85 29.7 Q 77.8 29.6 77.75 29.45 Q 77.7 29.3 77.65 29.2 Q 77.6 29.1 77.55 29.05 Q 77.5 29 77.4 28.85 Q 77.3 28.7 77.2 28.6 Q 77.1 28.5 77.05 28.45 Q 77 28.4 76.85 28.25 Q 76.7 28.1 76.65 27.95 Q 76.6 27.8 76.45 27.6 Q 76.3 27.4 76.2 27.25 Q 76.1 27.1 76 26.9 Q 75.9 26.7 75.85 26.6 Q 75.8 26.5 75.75 26.4 Q 75.7 26.3 75.7 26.2 Q 75.7 26.1 75.65 26 Q 75.6 25.9 75.6 25.85 Q 75.6 25.8 75.55 25.7 Q 75.5 25.6 75.45 25.45 Q 75.4 25.3 75.35 25.15 Q 75.3 25 75.3 24.9 Q 75.3 24.8 75.25 24.6 Q 75.2 24.4 75.2 24.25 Q 75.2 24.1 75.1 23.9 Q 75 23.7 75 23.5 Q 75 23.3 74.95 23.15 Q 74.9 23 74.9 22.85 Q 74.9 22.7 74.85 22.6 Q 74.8 22.5 74.75 22.3 Q 74.7 22.1 74.65 21.95 Q 74.6 21.8 74.6 21.6 Q 74.6 21.4 74.55 21.25 Q 74.5 21.1 74.45 20.9 Q 74.4 20.7 74.3 20.5 Q 74.2 20.3 74.15 20.05 Q 74.1 19.8 74.05 19.65 Q 74 19.5 73.95 19.35 Q 73.9 19.2 73.8 19 Q 73.7 18.8 73.65 18.65 Q 73.6 18.5 73.55 18.4 Q 73.5 18.3 73.45 18.25 Q 73.4 18.2 73.4 18.15 Q 73.4 18.1 73.35 18 Q 73.3 17.9 73.3 17.8 Q 73.3 17.7 73.25 17.65 Q 73.2 17.6 73.15 17.45 Q 73.1 17.3 73.1 17.25 Q 73.1 17.2 73.05 17.15 Q 73 17.1 72.95 17.05 Q 72.9 17 72.85 16.8 Q 72.8 16.6 72.75 16.5 Q 72.7 16.4 72.6 16.25 Q 72.5 16.1 72.5 15.95 Q 72.5 15.8 72.45 15.65 Q 72.4 15.5 72.35 15.35 Q 72.3 15.2 72.25 15.15 Q 72.2 15.1 72.2 15.05 Q 72.2 15 72.2 14.95 Q 72.2 14.9 72.2 14.95 Q 72.2 15 72.25 15.05 Q 72.3 15.1 72.35 15.15 Q 72.4 15.2 72.45 15.25 Q 72.5 15.3 72.6 15.4 Q 72.7 15.5 72.8 15.65 Q 72.9 15.8 73.05 16.05 Q 73.2 16.3 73.3 16.5 Q 73.4 16.7 73.5 16.9 Q 73.6 17.1 73.7 17.2 Q 73.8 17.3 73.85 17.5 Q 73.9 17.7 73.95 17.85 Q 74 18 74.05 18.15 Q 74.1 18.3 74.2 18.45 Q 74.3 18.6 74.35 18.75 Q 74.4 18.9 74.45 19.05 Q 74.5 19.2 74.5 19.25 Q 74.5 19.3 74.5 19.25 Q 74.5 19.2 74.5 19.05 Q 74.5 18.9 74.5 18.75 Q 74.5 18.6 74.5 18.35 Q 74.5 18.1 74.5 17.7 Q 74.5 17.3 74.45 16.95 Q 74.4 16.6 74.35 16.3 Q 74.3 16 74.3 15.9 Q 74.3 15.8 74.3 15.75 Q 74.3 15.7 74.25 15.65 L 74.198 15.598"/>
</svg>